HIERARCHY
ROOT Hip
{
	OFFSET 0 1.131 0.0052
	CHANNELS 6 Xposition Yposition Zposition Xrotation Yrotation Zrotation
	JOINT Abdomen
	{
		OFFSET 0 -0.047353 -0.05
		CHANNELS 3 Xrotation Zrotation Yrotation
		JOINT Chest
		{
			OFFSET 0 0.132153 0.007439
			CHANNELS 3 Xrotation Zrotation Yrotation
			JOINT Neck
			{
				OFFSET 0 0.3078 0.006161
				CHANNELS 3 Xrotation Zrotation Yrotation
				JOINT Head_comp
				{
					OFFSET 0 0.0884 0.013
					CHANNELS 3 Xrotation Yrotation Zrotation
					End Site
					{
						OFFSET -0 0.156 0.0624
					}
				}
			}
			JOINT Left_Collar
			{
				OFFSET 0.02282 0.250342 0.017193
				CHANNELS 2 Yrotation Zrotation
				JOINT Left_Shoulder
				{
					OFFSET 0.15421 0 0
					CHANNELS 3 Xrotation Yrotation Zrotation
					JOINT Left_Forearm
					{
						OFFSET 0.265212 0 0
						CHANNELS 2 Yrotation Xrotation
						JOINT Left_Hand
						{
							OFFSET 0.27571 0 0
							CHANNELS 2 Zrotation Yrotation
							JOINT L1ProxPhalanx
							{
								OFFSET 0.014142 0.001733 0.014142
								CHANNELS 3 Yrotation Zrotation Xrotation
								JOINT L1MidPhalanx
								{
									OFFSET 0.04 0 0
									CHANNELS 1 Zrotation
									JOINT L1DistPhalanx
									{
										OFFSET 0.035 0 0
										CHANNELS 1 Zrotation
										End Site
										{
											OFFSET 0.029 -0 -0
										}
									}
								}
							}
							JOINT L2ProxPhalanx
							{
								OFFSET 0.0821037 0.001578 0.0219996
								CHANNELS 2 Yrotation Zrotation
								JOINT L2MidPhalanx
								{
									OFFSET 0.04 0 0
									CHANNELS 1 Zrotation
									JOINT L2DistPhalanx
									{
										OFFSET 0.028 0 0
										CHANNELS 1 Zrotation
										End Site
										{
											OFFSET 0.02 -0 -0
										}
									}
								}
							}
							JOINT L3ProxPhalanx
							{
								OFFSET 0.083 0 0
								CHANNELS 2 Yrotation Zrotation
								JOINT L3MidPhalanx
								{
									OFFSET 0.053 0 0
									CHANNELS 1 Zrotation
									JOINT L3DistPhalanx
									{
										OFFSET 0.03 0 0
										CHANNELS 1 Zrotation
										End Site
										{
											OFFSET 0.023 -0 -0
										}
									}
								}
							}
							JOINT L4ProxPhalanx
							{
								OFFSET 0.077274 -0.000761 -0.0207055
								CHANNELS 2 Yrotation Zrotation
								JOINT L4MidPhalanx
								{
									OFFSET 0.05 0 0
									CHANNELS 1 Zrotation
									JOINT L4DistPhalanx
									{
										OFFSET 0.03 0 0
										CHANNELS 1 Zrotation
										End Site
										{
											OFFSET 0.023 -0 -0
										}
									}
								}
							}
							JOINT L5ProxPhalanx
							{
								OFFSET 0.0675499 -0.001644 -0.039
								CHANNELS 2 Yrotation Zrotation
								JOINT L5MidPhalanx
								{
									OFFSET 0.04 0 0
									CHANNELS 1 Zrotation
									JOINT L5DistPhalanx
									{
										OFFSET 0.021 0 0
										CHANNELS 1 Zrotation
										End Site
										{
											OFFSET 0.022 -0 -0
										}
									}
								}
							}
						}
					}
				}
			}
			JOINT Right_Collar
			{
				OFFSET -0.02282 0.250342 0.017193
				CHANNELS 2 Yrotation Zrotation
				JOINT Right_Shoulder
				{
					OFFSET -0.15421 0 0
					CHANNELS 3 Xrotation Yrotation Zrotation
					JOINT Right_Forearm
					{
						OFFSET -0.265212 0 0
						CHANNELS 2 Yrotation Xrotation
						JOINT Right_Hand
						{
							OFFSET -0.27571 3e-006 0
							CHANNELS 2 Zrotation Yrotation
							JOINT R1ProxPhalanx
							{
								OFFSET -0.014142 0.001733 0.014142
								CHANNELS 3 Yrotation Zrotation Xrotation
								JOINT R1MidPhalanx
								{
									OFFSET -0.04 0 0
									CHANNELS 1 Zrotation
									JOINT R1DistPhalanx
									{
										OFFSET -0.035 0 0
										CHANNELS 1 Zrotation
										End Site
										{
											OFFSET -0.029 -0 -0
										}
									}
								}
							}
							JOINT R2ProxPhalanx
							{
								OFFSET -0.0821037 0.001578 0.0219996
								CHANNELS 2 Yrotation Zrotation
								JOINT R2MidPhalanx
								{
									OFFSET -0.04 0 0
									CHANNELS 1 Zrotation
									JOINT R2DistPhalanx
									{
										OFFSET -0.028 0 0
										CHANNELS 1 Zrotation
										End Site
										{
											OFFSET -0.02 -0 -0
										}
									}
								}
							}
							JOINT R3ProxPhalanx
							{
								OFFSET -0.083 0 0
								CHANNELS 2 Yrotation Zrotation
								JOINT R3MidPhalanx
								{
									OFFSET -0.053 0 0
									CHANNELS 1 Zrotation
									JOINT R3DistPhalanx
									{
										OFFSET -0.03 0 0
										CHANNELS 1 Zrotation
										End Site
										{
											OFFSET -0.023 -0 -0
										}
									}
								}
							}
							JOINT R4ProxPhalanx
							{
								OFFSET -0.077274 -0.000761 -0.0207055
								CHANNELS 2 Yrotation Zrotation
								JOINT R4MidPhalanx
								{
									OFFSET -0.05 0 0
									CHANNELS 1 Zrotation
									JOINT R4DistPhalanx
									{
										OFFSET -0.03 0 0
										CHANNELS 1 Zrotation
										End Site
										{
											OFFSET -0.023 -0 -0
										}
									}
								}
							}
							JOINT R5ProxPhalanx
							{
								OFFSET -0.0675499 -0.001644 -0.039
								CHANNELS 2 Yrotation Zrotation
								JOINT R5MidPhalanx
								{
									OFFSET -0.04 0 0
									CHANNELS 1 Zrotation
									JOINT R5DistPhalanx
									{
										OFFSET -0.021 0 0
										CHANNELS 1 Zrotation
										End Site
										{
											OFFSET -0.022 -0 -0
										}
									}
								}
							}
						}
					}
				}
			}
		}
	}
	JOINT Left_Thigh
	{
		OFFSET 0.1118 -0.1612 -0.0442
		CHANNELS 3 Xrotation Zrotation Yrotation
		JOINT Left_Shin
		{
			OFFSET 0 -0.477856 0
			CHANNELS 1 Xrotation
			JOINT Left_Foot
			{
				OFFSET 0 -0.431952 0
				CHANNELS 2 Xrotation Zrotation
				JOINT Left_Toe
				{
					OFFSET 0 -0.0442 0.119
					CHANNELS 1 Xrotation
					End Site
					{
						OFFSET -0 -0 0.07
					}
				}
			}
		}
	}
	JOINT Right_Thigh
	{
		OFFSET -0.1118 -0.1612 -0.0442
		CHANNELS 3 Xrotation Zrotation Yrotation
		JOINT Right_Shin
		{
			OFFSET 0 -0.477856 0
			CHANNELS 1 Xrotation
			JOINT Right_Foot
			{
				OFFSET 0 -0.431952 0
				CHANNELS 2 Xrotation Zrotation
				JOINT Right_Toe
				{
					OFFSET 0 -0.0442 0.119
					CHANNELS 1 Xrotation
					End Site
					{
						OFFSET -0 -0 0.07
					}
				}
			}
		}
	}
}
MOTION
Frames: 10
Frame Time: 0.009975
-0.0985704 -0.0601893 0.0525644 2.68725e-013 7.61893e-008 -5.10929e-006 0 -0 0 0 -0 0 0 -0 0 -0.713308 0.283267 4.67063e-013 0.0249956 -3.98222 30.5813 -11.1921 -67.3105 -82.7341 0.0191417 0.0382883 -0.0140139 -37.9386 -28.008 73.698 -26.2405 -28.4472 -13.118 -18.2167 -29.0248 -19.6359 0 -22.4358 -32.6146 -28.1246 8.63175 -30.7051 -32.2053 -23.7634 7.83088 -26.7354 -35.1526 -30.0193 -3.74613 23.884 -3.63415 21.9698 29.184 61.9003 7.22185 -13.6213 -0.381112 2.23311 61.8294 134.956 16.4969 32.2601 -17.9561 30.9064 2.20355 4.76641 -17.6041 53.1182 38.5199 67.8042 -30.9853 42.9184 78.0347 48.6408 -57.3898 11.7264 144.42 -35.8244 0.842941 -0.833167 -0.0122582 0.0240216 -0.866874 0.833262 0 0.854347 -0.833164 -0.012424 2.41484e-006 -0.854259 0.833262 0 
-0.0985324 -0.0601898 0.0525589 4.24274e-013 7.61932e-008 -5.1093e-006 0 -0 0 0 -0 0 0 -0 0 -0.713309 0.283168 -2.24596e-013 0.0249956 -3.98222 30.5813 -11.1921 -67.3105 -82.7341 0.0191417 0.0382883 -0.0140139 -37.9386 -28.008 73.698 -26.2405 -28.4472 -13.118 -18.2167 -29.0248 -19.6359 0 -22.4358 -32.6146 -28.1246 8.63175 -30.7051 -32.2053 -23.7634 7.83088 -26.7354 -35.1526 -30.0193 -3.74665 23.767 -3.97123 21.8518 29.3798 61.7173 7.15756 -13.6973 -0.439657 3.88542 61.6727 133.311 16.4812 32.5056 -17.9343 30.6273 2.50627 4.779 -17.4146 53.2581 38.4388 67.8606 -30.5662 43.0513 77.45 49.3601 -57.1024 12.491 142.667 -34.1192 0.8426 -0.835564 -0.0122884 0.0240216 -0.866532 0.83566 0 0.854006 -0.835562 -0.0124548 2.41484e-006 -0.853917 0.83566 0 
-0.0985037 -0.0601901 0.0525524 9.55623e-013 7.61278e-008 -5.1093e-006 0 -0 0 0 -0 0 0 -0 0 -0.713309 0.283077 1.12858e-013 0.0249956 -3.98222 30.5813 -11.1921 -67.3105 -82.7341 0.0191417 0.0382883 -0.0140139 -37.9386 -28.008 73.698 -26.2405 -28.4472 -13.118 -18.2167 -29.0248 -19.6359 0 -22.4358 -32.6146 -28.1246 8.63175 -30.7051 -32.2053 -23.7634 7.83088 -26.7354 -35.1526 -30.0193 -3.72405 23.6801 -4.29311 21.6885 29.5959 61.5506 7.07214 -13.7289 -0.529587 5.42088 61.4607 131.435 16.4651 32.7089 -17.901 30.4817 2.49433 4.86413 -17.1841 53.5117 38.3764 67.963 -30.2531 43.0368 76.8079 50.1765 -56.8399 13.1709 141.027 -32.7944 0.842186 -0.837368 -0.0123089 0.0240216 -0.866117 0.837463 0 0.853592 -0.837365 -0.0124756 1.70755e-006 -0.853503 0.837463 0 
-0.0984794 -0.0601905 0.0525526 -2.44143e-013 7.61199e-008 -5.1093e-006 0 -0 0 0 -0 0 0 -0 0 -0.71331 0.283007 1.94183e-013 0.0249956 -3.98222 30.5813 -11.1921 -67.3105 -82.7341 0.0191417 0.0382883 -0.0140139 -37.9386 -28.008 73.698 -26.2405 -28.4472 -13.118 -18.2167 -29.0248 -19.6359 0 -22.4358 -32.6146 -28.1246 8.63175 -30.7051 -32.2053 -23.7634 7.83088 -26.7354 -35.1526 -30.0193 -3.72112 23.6226 -4.58106 21.5447 29.7709 61.412 6.95133 -13.6851 -0.677623 6.74204 61.2418 129.695 16.4615 32.8226 -17.8318 30.3153 2.23145 5.25456 -17.0488 53.6715 38.2919 68.1959 -29.6303 43.7493 76.0897 50.5163 -56.5839 13.7531 139.449 -31.7916 0.8422 -0.838898 -0.0123316 0.0240216 -0.866131 0.838993 0 0.853606 -0.838895 -0.0124986 2.41484e-006 -0.853516 0.838993 0 
-0.098441 -0.0601911 0.0525547 -6.82114e-013 7.61307e-008 -5.10931e-006 0 -0 0 0 -0 0 0 -0 0 -0.713311 0.282916 2.54275e-013 0.0249956 -3.98222 30.5813 -11.1921 -67.3105 -82.7341 0.0191417 0.0382883 -0.0140139 -37.9386 -28.008 73.698 -26.2405 -28.4472 -13.118 -18.2167 -29.0248 -19.6359 0 -22.4358 -32.6146 -28.1246 8.63175 -30.7051 -32.2053 -23.7634 7.83088 -26.7354 -35.1526 -30.0193 -3.70813 23.5194 -4.93884 21.3283 29.9845 61.274 6.85589 -13.6258 -0.839703 8.02051 61.1223 128.245 16.6189 32.6797 -17.7647 30.1396 1.84298 5.76052 -17.0004 53.6632 37.9464 68.6196 -28.9639 44.6279 75.4245 50.7033 -56.2836 14.3951 137.986 -30.8122 0.842333 -0.841317 -0.0123691 0.0240216 -0.866264 0.841413 0 0.853739 -0.841314 -0.0125366 1.70755e-006 -0.853649 0.841413 0 
-0.0984043 -0.0601917 0.0525628 -4.21209e-013 7.6144e-008 -5.10931e-006 0 -0 0 0 -0 0 0 -0 0 -0.713313 0.282812 6.88432e-013 0.0249956 -3.98222 30.5813 -11.1921 -67.3105 -82.7341 0.0191417 0.0382883 -0.0140139 -37.9386 -28.008 73.698 -26.2405 -28.4472 -13.118 -18.2167 -29.0248 -19.6359 0 -22.4358 -32.6146 -28.1246 8.63175 -30.7051 -32.2053 -23.7634 7.83088 -26.7354 -35.1526 -30.0193 -3.7042 23.4392 -5.26642 21.1078 30.171 61.1548 6.73817 -13.6242 -1.04149 9.77602 60.987 125.745 16.9752 32.6556 -17.7061 29.9811 1.67273 5.73946 -17.0192 53.5758 37.542 69.1748 -28.3351 45.7848 74.3832 50.9244 -55.8653 15.0713 136.76 -30.0592 0.842844 -0.843633 -0.0124107 0.0240216 -0.866774 0.843729 0 0.85425 -0.84363 -0.0125786 1.70755e-006 -0.854159 0.843729 0 
-0.0983703 -0.0601925 0.0525803 -1.53592e-013 7.6224e-008 -5.10931e-006 0 -0 0 0 -0 0 0 -0 0 -0.713316 0.282714 4.81416e-013 0.0249956 -3.98222 30.5813 -11.1921 -67.3105 -82.7341 0.0191417 0.0382883 -0.0140139 -37.9386 -28.008 73.698 -26.2405 -28.4472 -13.118 -18.2167 -29.0248 -19.6359 0 -22.4358 -32.6146 -28.1246 8.63175 -30.7051 -32.2053 -23.7634 7.83088 -26.7354 -35.1526 -30.0193 -3.71171 23.3845 -5.49102 20.8991 30.2935 61.0682 6.56663 -13.6848 -1.23257 11.1425 60.8548 123.997 17.1435 32.6234 -17.6915 29.6494 2.00738 5.19922 -17.0802 53.4293 37.1346 69.4346 -27.6629 46.9682 73.1188 51.4641 -55.3224 15.8248 135.56 -29.3144 0.84395 -0.845774 -0.0124585 0.0240216 -0.867879 0.845871 0 0.855356 -0.845771 -0.0126269 8.83656e-007 -0.855263 0.845871 0 
-0.0983321 -0.0601934 0.0526025 9.86941e-013 7.6343e-008 -5.10931e-006 0 -0 0 0 -0 0 0 -0 0 -0.71332 0.282613 1.19232e-012 0.0249956 -3.98222 30.5813 -11.1921 -67.3105 -82.7341 0.0191417 0.0382883 -0.0140139 -37.9386 -28.008 73.698 -26.2405 -28.4472 -13.118 -18.2167 -29.0248 -19.6359 0 -22.4358 -32.6146 -28.1246 8.63175 -30.7051 -32.2053 -23.7634 7.83088 -26.7354 -35.1526 -30.0193 -3.71979 23.3249 -5.67535 20.6875 30.3794 61.0012 6.35555 -13.713 -1.41251 11.7835 60.6608 123.724 16.9812 32.3854 -17.7119 29.043 2.60973 4.79721 -16.878 53.5611 36.751 69.4837 -26.8632 47.9443 72.013 52.2422 -54.7205 16.6761 134.194 -28.3625 0.845349 -0.84818 -0.0125147 0.0240216 -0.869278 0.848277 0 0.856755 -0.848177 -0.0126835 0 -0.856661 0.848277 0 
-0.0982921 -0.0601944 0.0526273 -8.27908e-013 7.64747e-008 -5.10931e-006 0 -0 0 0 -0 0 0 -0 0 -0.713324 0.2825 1.08263e-012 0.0249956 -3.98222 30.5813 -11.1921 -67.3105 -82.7341 0.0191417 0.0382883 -0.0140139 -37.9386 -28.008 73.698 -26.2405 -28.4472 -13.118 -18.2167 -29.0248 -19.6359 0 -22.4358 -32.6146 -28.1246 8.63175 -30.7051 -32.2053 -23.7634 7.83088 -26.7354 -35.1526 -30.0193 -3.73917 23.2654 -5.83656 20.5021 30.4405 60.9366 6.12372 -13.7844 -1.63081 12.6605 60.3301 122.853 16.7686 32.3121 -17.6657 28.5229 2.92816 4.88416 -16.5491 53.9409 36.4738 69.808 -25.9159 49.0478 70.9064 52.962 -54.0249 17.625 132.801 -27.3727 0.84691 -0.850696 -0.012575 0.0240216 -0.870838 0.850794 0 0.858316 -0.850694 -0.0127443 0 -0.858221 0.850794 0 
-0.0982459 -0.0601955 0.0526563 -2.27373e-013 7.6623e-008 -5.10931e-006 0 -0 0 0 -0 0 0 -0 0 -0.713329 0.282373 1.70872e-012 0.0249956 -3.98222 30.5813 -11.1921 -67.3105 -82.7341 0.0191417 0.0382883 -0.0140139 -37.9386 -28.008 73.698 -26.2405 -28.4472 -13.118 -18.2167 -29.0248 -19.6359 0 -22.4358 -32.6146 -28.1246 8.63175 -30.7051 -32.2053 -23.7634 7.83088 -26.7354 -35.1526 -30.0193 -3.76625 23.1885 -6.0081 20.2997 30.5122 60.8585 5.90565 -13.9696 -1.80289 13.7558 60.1039 121.698 16.7974 32.2086 -17.611 28.2134 3.06349 5.05154 -16.5767 54.031 35.9286 70.3816 -25.322 49.6313 69.9432 53.8017 -53.2295 18.7631 131.06 -26.0304 0.848734 -0.853604 -0.0126451 0.0240216 -0.872661 0.853703 0 0.860139 -0.853601 -0.0128151 1.34503e-006 -0.860045 0.853703 0 
